<?xml version="1.0" encoding="UTF-8" standalone="no"?>
<!-- Uploaded to: SVG Repo, www.svgrepo.com, Generator: SVG Repo Mixer Tools -->

<svg
   height="800px"
   width="800px"
   version="1.1"
   id="_x32_"
   viewBox="0 0 512 512"
   xml:space="preserve"
   sodipodi:docname="face-rec-sqr.svg"
   inkscape:version="1.4.2 (ebf0e940, 2025-05-08)"
   xmlns:inkscape="http://www.inkscape.org/namespaces/inkscape"
   xmlns:sodipodi="http://sodipodi.sourceforge.net/DTD/sodipodi-0.dtd"
   xmlns="http://www.w3.org/2000/svg"
   xmlns:svg="http://www.w3.org/2000/svg"><defs
   id="defs5" /><sodipodi:namedview
   id="namedview5"
   pagecolor="#ffffff"
   bordercolor="#000000"
   borderopacity="0.25"
   inkscape:showpageshadow="2"
   inkscape:pageopacity="0.0"
   inkscape:pagecheckerboard="0"
   inkscape:deskcolor="#d1d1d1"
   inkscape:zoom="1.04"
   inkscape:cx="399.51923"
   inkscape:cy="400"
   inkscape:window-width="1920"
   inkscape:window-height="1027"
   inkscape:window-x="0"
   inkscape:window-y="25"
   inkscape:window-maximized="0"
   inkscape:current-layer="_x32_" />
<style
   type="text/css"
   id="style1">
	.st0{fill:#000000;}
</style>
<g
   id="g5">
	<polygon
   class="st0"
   points="131.549,358.824 88.822,358.824 88.822,316.089 64.362,316.089 64.362,383.285 131.549,383.285  "
   id="polygon1" />
	<polygon
   class="st0"
   points="380.451,0 380.451,24.461 423.178,24.461 423.178,67.196 447.638,67.196 447.638,0  "
   id="polygon2" />
	<polygon
   class="st0"
   points="88.822,24.453 131.549,24.461 131.549,0 64.362,0 64.362,67.196 88.822,67.196  "
   id="polygon3" />
	<polygon
   class="st0"
   points="423.178,358.824 380.451,358.824 380.451,383.285 447.638,383.285 447.638,316.089 423.178,316.089     "
   id="polygon4" />
	<path
   class="st0"
   d="M255.996,316.67c69.052,0,125.028-55.969,125.028-125.028c0-69.051-55.976-125.028-125.028-125.028   c-69.051,0-125.028,55.977-125.028,125.028C130.968,260.701,186.945,316.67,255.996,316.67z"
   id="path4" />
	<path
   class="st0"
   d="M255.996,341.378c-62.044,0-114.78,55.833-127.194,96.163C115.64,480.308,131.9,512,175.335,512h161.322   c43.435,0,59.695-31.692,46.533-74.458C370.776,397.211,318.04,341.378,255.996,341.378z"
   id="path5" />
</g>
</svg>
