<?xml version="1.0" encoding="UTF-8" standalone="no"?>
<!-- Generator: Adobe Illustrator 25.2.0, SVG Export Plug-In . SVG Version: 6.00 Build 0)  -->

<svg
   version="1.1"
   id="Layer_1"
   x="0px"
   y="0px"
   viewBox="200 325 112.03 128.55"
   xml:space="preserve"
   sodipodi:docname="promptfoo.svg"
   width="112.03"
   height="128.55"
   inkscape:version="1.4.2 (ebf0e940, 2025-05-08)"
   xmlns:inkscape="http://www.inkscape.org/namespaces/inkscape"
   xmlns:sodipodi="http://sodipodi.sourceforge.net/DTD/sodipodi-0.dtd"
   xmlns:xlink="http://www.w3.org/1999/xlink"
   xmlns="http://www.w3.org/2000/svg"
   xmlns:svg="http://www.w3.org/2000/svg"><defs
   id="defs12" /><sodipodi:namedview
   id="namedview12"
   pagecolor="#ffffff"
   bordercolor="#000000"
   borderopacity="0.25"
   inkscape:showpageshadow="2"
   inkscape:pageopacity="0.0"
   inkscape:pagecheckerboard="0"
   inkscape:deskcolor="#d1d1d1"
   inkscape:zoom="4.16"
   inkscape:cx="55.168269"
   inkscape:cy="73.557692"
   inkscape:window-width="1920"
   inkscape:window-height="1027"
   inkscape:window-x="0"
   inkscape:window-y="25"
   inkscape:window-maximized="0"
   inkscape:current-layer="Layer_1"
   showguides="true" />
<style
   type="text/css"
   id="style1">
	.st0{fill-rule:evenodd;clip-rule:evenodd;}
	.st1{fill-rule:evenodd;clip-rule:evenodd;fill:#FE2C06;}
	.st2{fill-rule:evenodd;clip-rule:evenodd;fill:#8A0A1C;}
	.st3{clip-path:url(#SVGID_2_);fill:url(#SVGID_3_);}
	.st4{fill-rule:evenodd;clip-rule:evenodd;fill:#FEFEFE;}
	.st5{fill:none;stroke:#373435;stroke-width:0.216;stroke-miterlimit:2.6131;}
</style>
<rect
   style="fill:#ffffff;fill-opacity:1;stroke-width:1"
   id="rect14"
   width="111.60813"
   height="128.60577"
   x="200.24039"
   y="325.24039" /><path
   class="st0"
   d="M 212.87047,409.31458 255.6583,453 l 32.8772,-33.56708 12.71469,14.97722 0.60829,0.28931 c 2.15868,1.03112 4.79212,0.13353 6.61698,-1.17948 2.22544,-1.60232 3.6794,-4.59925 2.0845,-7.15109 l -0.11128,-0.17062 -11.02335,-13.41199 -1.28334,0.93468 -1.42428,-1.69133 0.46734,-0.66022 c 1.98064,-2.82631 3.0266,-6.16447 3.0266,-9.61391 0,-1.06079 -0.0964,-2.11417 -0.29673,-3.15271 l -0.1261,-0.65279 0.57861,-0.42284 c 0.28931,-0.2077 0.5712,-0.42283 0.85309,-0.64538 2.945,-2.27736 5.57844,-4.94048 8.12286,-7.64068 l 1.95097,-2.06966 -9.11689,-10.5931 0.31156,-0.63055 c 1.66908,-3.32332 2.93758,-6.98788 3.8426,-10.5931 l 0.0445,-0.17803 c 0.74182,-3.01919 1.28334,-6.19415 1.40203,-9.30977 0.20771,-5.25204 0.37833,-10.52634 0.25222,-15.7858 l -0.0668,-2.93017 -2.93017,-0.14094 c -3.10078,-0.14836 -6.31284,0.0742 -9.39136,0.43767 -5.8455,0.68989 -11.83935,2.15868 -17.0914,4.85888 l -0.97177,0.49702 -5.05176,-10.74889 L 255.65089,325 l -16.87627,7.05465 -5.05176,10.74889 -0.97177,-0.49702 c -5.25205,-2.7002 -11.2459,-4.16899 -17.0914,-4.85888 -3.07852,-0.36349 -6.29058,-0.58603 -9.39136,-0.43767 l -2.93017,0.14094 -0.0668,2.93017 c -0.12611,5.25946 0.0519,10.52634 0.25222,15.7858 0.11869,3.1082 0.66021,6.29058 1.40203,9.30977 l 0.0445,0.17803 c 0.8976,3.60522 2.1661,7.26978 3.83518,10.5931 l 0.31156,0.63055 -9.11689,10.5931 1.95097,2.06966 c 2.54442,2.7002 5.18528,5.36332 8.12286,7.64068 0.0371,0.0297 0.0742,0.0593 0.11869,0.089 l 0.31898,0.2448 z"
   id="path1"
   style="stroke-width:1" />
<polygon
   class="st1"
   points="297.44,342.94 317.03,351.12 325.71,369.59 297.44,369.59 "
   id="polygon1"
   transform="matrix(0.74181397,0,0,0.74181397,35.013156,74.036917)"
   style="stroke-width:1.34805" />
<path
   class="st1"
   d="m 255.6583,354.56871 22.76627,0.0593 15.5781,8.3825 c -12.78146,1.55039 -22.52889,2.76697 -38.34437,2.83373 z"
   id="path2"
   style="stroke-width:1" />
<path
   class="st2"
   d="m 240.57723,378.88537 c 1.62457,0 2.93758,1.31301 2.93758,2.93758 0,1.62457 -1.31301,2.93758 -2.93758,2.93758 -1.62458,0 -2.93759,-1.31301 -2.93759,-2.93758 0,-1.61715 1.32043,-2.93758 2.93759,-2.93758 m 15.08107,-9.68067 c -10.66728,-0.20029 -21.78707,-0.85309 -34.04926,-2.26996 l -17.35103,20.14767 c 7.71487,8.18963 11.70583,10.90467 23.34489,15.09592 10.55601,3.79808 23.30038,8.38249 28.0554,8.55311 v -6.89887 h -4.04288 c 0,0 -0.56378,-0.1632 -0.70473,-1.32043 -0.14094,-1.15723 0.75665,-1.29075 0.75665,-1.29075 h 2.22545 v -3.41977 c 0,0 -3.18239,-1.65424 -3.90936,-3.85743 -0.36349,-1.11272 -0.28931,-1.86937 -0.0223,-2.38864 0.67505,-1.32043 2.35897,-1.42428 3.63489,-1.42428 h 2.05483 V 369.2047 Z"
   id="path3"
   style="stroke-width:1" />
<path
   class="st2"
   d="m 255.6583,413.49841 v 11.62422 l -16.81692,-16.1938 c -0.007,0.007 9.85871,4.02064 16.81692,4.56958"
   id="path4"
   style="stroke-width:1" />
<path
   class="st2"
   d="m 214.2725,399.96772 c 0,0 6.76535,3.24915 11.57972,4.99983 4.81437,1.74326 7.83355,2.64827 7.83355,2.64827 l 21.97253,21.55712 v 19.32425 l -39.8725,-40.71075 z"
   id="path5"
   style="stroke-width:1" />
<path
   class="st1"
   d="m 270.73196,378.88537 c -1.62457,0 -2.93758,1.31301 -2.93758,2.93758 0,1.62457 1.31301,2.93758 2.93758,2.93758 1.62458,0 2.93759,-1.31301 2.93759,-2.93758 0,-1.61715 -1.32043,-2.93758 -2.93759,-2.93758 M 255.6583,369.2047 c 10.66729,-0.20029 21.78708,-0.85309 34.04926,-2.26996 l 17.34362,20.14767 c -3.21948,3.41976 -5.79357,5.88259 -8.5457,7.90032 -2.58893,-5.74164 -8.36025,-9.74002 -15.06624,-9.74002 -9.1169,0 -16.51278,7.38847 -16.51278,16.51278 0,2.07708 0.38574,4.05773 1.08305,5.89001 -5.31881,1.72842 -9.90322,2.98951 -12.35862,3.07852 v -6.89887 h 4.04288 c 0,0 0.56378,-0.1632 0.70472,-1.32043 0.14095,-1.15722 -0.75665,-1.29075 -0.75665,-1.29075 h -2.22544 v -3.41976 c 0,0 3.18238,-1.65425 3.90936,-3.85744 0.36349,-1.11272 0.28931,-1.86937 0.0223,-2.38864 -0.67505,-1.32043 -2.35897,-1.42428 -3.63489,-1.42428 h -2.05483 z"
   id="path6"
   style="stroke-width:1" />
<path
   class="st1"
   d="m 255.6583,413.49841 v 11.62422 l 14.33185,-13.79774 c -0.27447,-0.37832 -0.52669,-0.77148 -0.76407,-1.17948 -3.49394,1.23883 -9.12431,3.00435 -13.56778,3.353"
   id="path7"
   style="stroke-width:1" />
<path
   class="st1"
   d="m 271.72599,413.39455 -16.0751,15.77097 v 19.32425 L 285.36053,418.157 c -0.63054,0.0742 -1.27592,0.11127 -1.92871,0.11127 -4.56958,0 -8.7089,-1.86195 -11.70583,-4.87372"
   id="path8"
   style="stroke-width:1" />
<polygon
   class="st2"
   points="297.44,342.94 277.84,351.12 269.16,369.59 297.44,369.59 "
   id="polygon8"
   transform="matrix(0.74181397,0,0,0.74181397,35.013156,74.036917)"
   style="stroke-width:1.34805" />
<path
   class="st2"
   d="m 255.6583,354.56871 -22.76627,0.0593 -15.57809,8.3825 c 12.78145,1.55039 22.52889,2.76697 38.34436,2.83373 z"
   id="path9"
   style="stroke-width:1" />
<g
   id="g10"
   transform="matrix(0.74181397,0,0,0.74181397,35.013156,74.036917)"
   style="stroke-width:1.34805">
	<defs
   id="defs9">
		<path
   id="SVGID_1_"
   d="m 346.03,441.82 c -0.02,6.13 -5,11.09 -11.14,11.09 -3.7,0 -6.97,-1.8 -9,-4.58 z m -11.14,-11.18 c 4.77,0 8.84,3 10.43,7.22 l -21.17,6.85 c -0.25,-0.93 -0.39,-1.92 -0.39,-2.93 -0.01,-6.15 4.98,-11.14 11.13,-11.14 z" />
	</defs>
	<clipPath
   id="SVGID_2_">
		<use
   xlink:href="#SVGID_1_"
   style="overflow:visible"
   id="use9" />
	</clipPath>
	<linearGradient
   id="SVGID_3_"
   gradientUnits="userSpaceOnUse"
   x1="337.02811"
   y1="446.659"
   x2="332.03809"
   y2="435.26901">
		<stop
   offset="0"
   style="stop-color:#FE2C06"
   id="stop9" />
		<stop
   offset="1"
   style="stop-color:#8A0A1C"
   id="stop10" />
	</linearGradient>
	<rect
   x="323.75"
   y="430.64001"
   class="st3"
   width="22.27"
   height="22.27"
   clip-path="url(#SVGID_2_)"
   id="rect10"
   style="fill:url(#SVGID_3_);stroke-width:1.34805" />
</g>
<path
   class="st4"
   d="m 268.00951,407.6455 c -5.31881,1.72842 -9.90322,2.98951 -12.35862,3.07852 -2.93017,-0.10385 -8.90919,-1.89162 -15.53359,-4.13932 -1.27592,-1.72842 -1.88421,-3.21205 -2.06224,-5.09626 -0.56378,-6.16447 3.99837,-12.85564 9.02046,-16.59438 2.90049,-2.15868 5.73422,-3.13045 8.57537,-3.19722 2.84856,0.0668 5.67487,1.03854 8.57536,3.19722 2.31446,1.72101 4.52507,4.06514 6.18673,6.69858 -2.18835,2.80406 -3.49394,6.32767 -3.49394,10.15543 0.007,2.0845 0.39316,4.06515 1.09047,5.89743 m -31.8535,-34.76141 c 2.99693,-0.74923 6.23124,-1.09046 8.94628,0.61571 1.86937,1.17206 2.80406,3.21947 3.50878,5.22979 l -2.14384,-0.29673 c 0.007,-0.007 -4.30252,-3.63489 -10.31122,-5.54877 z m 38.99716,0 c -2.99692,-0.74923 -6.23123,-1.09046 -8.94627,0.61571 -1.86937,1.17206 -2.80406,3.21947 -3.50878,5.22979 l 2.14384,-0.29673 c -0.007,-0.007 4.30252,-3.63489 10.31121,-5.54877 z m 24.13863,21.50519 c -0.25963,0.20029 -0.52669,0.40058 -0.78632,0.59345 -2.52217,-5.60811 -8.09319,-9.54714 -14.5989,-9.7326 -2.3293,-6.06062 -6.69858,-9.88838 -6.69858,-9.88838 0,0 10.54859,1.81745 16.28282,8.00417 3.4791,3.75358 5.08142,8.15254 5.80098,11.02336 z m -87.27441,0 c 3.99837,3.09336 8.21188,5.1111 15.24427,7.66294 -0.80115,-2.05483 -1.95097,-6.27575 -1.07563,-12.2251 1.27592,-8.64213 7.91516,-14.45795 7.91516,-14.45795 0,0 -10.5486,1.81744 -16.28282,8.00417 -3.4791,3.74616 -5.08142,8.14512 -5.80098,11.01594 z m 66.85969,-48.67041 3.56071,7.18817 c 3.16012,-1.81744 9.0798,-4.24317 15.14784,-4.59183 -0.22996,4.22834 -0.74182,8.25639 -2.43315,12.31412 l 5.98644,3.2714 c -2.14384,1.24624 -5.56361,1.95838 -7.81872,2.57409 l 6.15705,8.45668 c 0,0 4.75503,-9.15398 5.14819,-19.16847 0.39316,-10.01449 0.25222,-15.58551 0.25222,-15.58551 0,0 -14.86595,-0.7344 -26.00058,5.54135 z m -46.44497,0 -3.56071,7.18817 c -3.16013,-1.81744 -9.0798,-4.24317 -15.14784,-4.59183 0.22996,4.22834 0.74181,8.25639 2.43315,12.31412 l -5.98644,3.2714 c 2.14384,1.24624 5.56361,1.95838 7.81872,2.57409 l -6.15706,8.45668 c 0,0 -4.75502,-9.15398 -5.14819,-19.16847 -0.39316,-10.01449 -0.25221,-15.58551 -0.25221,-15.58551 0,0 14.86595,-0.7344 26.00058,5.54135 z m 54.16725,48.40336 c 2.10676,0.87534 3.77584,2.58893 4.577,4.73277 l -5.88259,1.90646 c 0.35607,-0.86792 0.7344,-2.01773 0.94211,-3.30849 0.22996,-1.42428 0.32639,-2.55926 0.36348,-3.33074 z m -3.16012,-2.97468 c 5.86033,0 10.60794,4.74761 10.60794,10.60794 0,5.86033 -4.74761,10.60794 -10.60794,10.60794 -5.86033,0 -10.60794,-4.74761 -10.60794,-10.60794 0,-5.86033 4.74761,-10.60794 10.60794,-10.60794 z m 0,-3.01176 c 7.52199,0 13.6197,6.09771 13.6197,13.6197 0,7.522 -6.09771,13.61971 -13.6197,13.61971 -7.522,0 -13.61971,-6.09771 -13.61971,-13.61971 0,-7.52199 6.09771,-13.6197 13.61971,-13.6197 z m 8.64213,27.69191 2.0029,2.18835 c 0,0 0.50443,-0.80115 0.91985,-1.09788 0.41541,-0.29673 1.31301,-0.47476 1.31301,-0.47476 l -1.94356,-2.30704 c -0.007,-0.007 -1.07563,1.15723 -2.2922,1.69133 z m 1.74326,4.97016 9.39137,11.06044 c 0,0 1.30559,0.62313 3.41976,-0.89017 2.11417,-1.52072 1.24625,-2.91533 1.24625,-2.91533 l -9.00562,-10.94918 z m -15.7858,-20.118 c 0,0 0.75665,-1.71359 2.0845,-2.90791 0.87534,-0.78632 1.61715,-0.98661 2.11417,-1.2685 0.52669,-0.29673 0.86792,-1.09788 0.62312,-1.63941 -0.23738,-0.53411 -0.92727,-0.80116 -1.86195,-0.47476 -1.29818,0.44509 -2.60377,1.12756 -3.71649,2.72988 -1.11272,1.60231 -1.09047,3.37525 -1.09047,3.37525 z M 255.6583,390.12385 h 2.05483 c 1.27592,0 2.96725,0.10385 3.63489,1.42428 0.26705,0.52669 0.34123,1.27592 -0.0223,2.38864 -0.71956,2.20319 -3.90936,3.85744 -3.90936,3.85744 v 3.41976 h 2.22544 c 0,0 0.8976,0.14094 0.75665,1.29075 -0.14094,1.15723 -0.70472,1.32043 -0.70472,1.32043 h -4.04288 -4.04289 c 0,0 -0.56378,-0.1632 -0.70472,-1.32043 -0.14095,-1.15722 0.75665,-1.29075 0.75665,-1.29075 h 2.22544 v -3.41976 c 0,0 -3.18238,-1.65425 -3.90936,-3.85744 -0.36349,-1.11272 -0.28931,-1.86937 -0.0223,-2.38864 0.67505,-1.32043 2.35897,-1.42428 3.63489,-1.42428 z m 21.52003,11.20881 c 0.74923,0 1.36493,0.60829 1.36493,1.36494 0,0.75665 -0.60828,1.36493 -1.36493,1.36493 -0.75665,0 -1.36494,-0.60828 -1.36494,-1.36493 0,-0.75665 0.6157,-1.36494 1.36494,-1.36494 z"
   id="path10"
   style="stroke-width:1" />
<path
   class="st0"
   d="m 240.57723,384.76053 c 1.62457,0 2.93758,-1.31301 2.93758,-2.93758 0,-1.62457 -1.31301,-2.93758 -2.93758,-2.93758 -1.62458,0 -2.93759,1.31301 -2.93759,2.93758 0,1.62457 1.32043,2.93758 2.93759,2.93758 z m 16.83917,13.03368 c 0,0 3.18238,-1.65425 3.90936,-3.85744 0.36349,-1.11272 0.28931,-1.86937 0.0223,-2.38864 -0.67505,-1.32043 -2.35897,-1.42428 -3.63489,-1.42428 h -2.05483 -2.05482 c -1.27592,0 -2.96726,0.10385 -3.63489,1.42428 -0.26705,0.52669 -0.34123,1.27592 0.0222,2.38864 0.71956,2.20319 3.90936,3.85744 3.90936,3.85744 v 3.41976 h -2.22544 c 0,0 -0.89759,0.14094 -0.75665,1.29075 0.14095,1.15723 0.70473,1.32043 0.70473,1.32043 h 4.04288 4.04289 c 0,0 0.56378,-0.1632 0.70472,-1.32043 0.14095,-1.15722 -0.75665,-1.29075 -0.75665,-1.29075 h -2.22544 v -3.41976 z m 10.37798,-15.97126 c 0,1.62457 1.31301,2.93758 2.93758,2.93758 1.62458,0 2.93759,-1.31301 2.93759,-2.93758 0,-1.62457 -1.31301,-2.93758 -2.93759,-2.93758 -1.62457,0 -2.93758,1.32043 -2.93758,2.93758 z"
   id="path11"
   style="stroke-width:1" />
<path
   class="st5"
   d="m 240.57723,384.76053 c 1.62457,0 2.93758,-1.31301 2.93758,-2.93758 0,-1.62457 -1.31301,-2.93758 -2.93758,-2.93758 -1.62458,0 -2.93759,1.31301 -2.93759,2.93758 0,1.62457 1.32043,2.93758 2.93759,2.93758 z m 16.83917,13.03368 c 0,0 3.18238,-1.65425 3.90936,-3.85744 0.36349,-1.11272 0.28931,-1.86937 0.0223,-2.38864 -0.67505,-1.32043 -2.35897,-1.42428 -3.63489,-1.42428 h -2.05483 -2.05482 c -1.27592,0 -2.96726,0.10385 -3.63489,1.42428 -0.26705,0.52669 -0.34123,1.27592 0.0222,2.38864 0.71956,2.20319 3.90936,3.85744 3.90936,3.85744 v 3.41976 h -2.22544 c 0,0 -0.89759,0.14094 -0.75665,1.29075 0.14095,1.15723 0.70473,1.32043 0.70473,1.32043 h 4.04288 4.04289 c 0,0 0.56378,-0.1632 0.70472,-1.32043 0.14095,-1.15722 -0.75665,-1.29075 -0.75665,-1.29075 h -2.22544 v -3.41976 z m 10.37798,-15.97126 c 0,1.62457 1.31301,2.93758 2.93758,2.93758 1.62458,0 2.93759,-1.31301 2.93759,-2.93758 0,-1.62457 -1.31301,-2.93758 -2.93759,-2.93758 -1.62457,0 -2.93758,1.32043 -2.93758,2.93758 z"
   id="path12" />
</svg>
