<?xml version="1.0" encoding="UTF-8"?>
<svg width="128" height="128" viewBox="0 0 128 128" xmlns="http://www.w3.org/2000/svg">
    
        <defs>
            <linearGradient id="bgGradient" x1="0%" y1="0%" x2="100%" y2="100%">
                <stop offset="0%" style="stop-color:#ffffff;stop-opacity:1" />
                <stop offset="100%" style="stop-color:#ffffff;stop-opacity:1" />
            </linearGradient>
        </defs>
    <!-- Rounded background -->
    <rect width="128" height="128" rx="16" ry="16" 
          fill="url(#bgGradient)" />
    <!-- Original icon -->
    <g transform="translate(20.0, 20.0) scale(0.171875)">
        <ns0:defs xmlns:ns0="http://www.w3.org/2000/svg" id="defs5" /><ns0:namedview xmlns:ns0="http://sodipodi.sourceforge.net/DTD/sodipodi-0.dtd" xmlns:ns1="http://www.inkscape.org/namespaces/inkscape" id="namedview5" pagecolor="#ffffff" bordercolor="#000000" borderopacity="0.25" ns1:showpageshadow="2" ns1:pageopacity="0.0" ns1:pagecheckerboard="0" ns1:deskcolor="#d1d1d1" ns1:zoom="1.04" ns1:cx="399.51923" ns1:cy="400" ns1:window-width="1920" ns1:window-height="1027" ns1:window-x="0" ns1:window-y="25" ns1:window-maximized="0" ns1:current-layer="_x32_" />
<ns0:style xmlns:ns0="http://www.w3.org/2000/svg" type="text/css" id="style1">
	.st0{fill:#000000;}
</ns0:style>
<ns0:g xmlns:ns0="http://www.w3.org/2000/svg" id="g5">
	<ns0:polygon class="st0" points="131.549,358.824 88.822,358.824 88.822,316.089 64.362,316.089 64.362,383.285 131.549,383.285  " id="polygon1" />
	<ns0:polygon class="st0" points="380.451,0 380.451,24.461 423.178,24.461 423.178,67.196 447.638,67.196 447.638,0  " id="polygon2" />
	<ns0:polygon class="st0" points="88.822,24.453 131.549,24.461 131.549,0 64.362,0 64.362,67.196 88.822,67.196  " id="polygon3" />
	<ns0:polygon class="st0" points="423.178,358.824 380.451,358.824 380.451,383.285 447.638,383.285 447.638,316.089 423.178,316.089     " id="polygon4" />
	<ns0:path class="st0" d="M255.996,316.67c69.052,0,125.028-55.969,125.028-125.028c0-69.051-55.976-125.028-125.028-125.028   c-69.051,0-125.028,55.977-125.028,125.028C130.968,260.701,186.945,316.67,255.996,316.67z" id="path4" />
	<ns0:path class="st0" d="M255.996,341.378c-62.044,0-114.78,55.833-127.194,96.163C115.64,480.308,131.9,512,175.335,512h161.322   c43.435,0,59.695-31.692,46.533-74.458C370.776,397.211,318.04,341.378,255.996,341.378z" id="path5" />
</ns0:g>

    </g>
</svg>