<?xml version="1.0" encoding="UTF-8"?>
<svg width="128" height="128" viewBox="0 0 128 128" xmlns="http://www.w3.org/2000/svg">
    
        <defs>
            <linearGradient id="bgGradient" x1="0%" y1="0%" x2="100%" y2="100%">
                <stop offset="0%" style="stop-color:#ffffff;stop-opacity:1" />
                <stop offset="100%" style="stop-color:#ffffff;stop-opacity:1" />
            </linearGradient>
        </defs>
    
    <!-- Rounded background -->
    <rect width="128" height="128" rx="16" ry="16" 
          fill="url(#bgGradient)" />
    
    <!-- Original icon -->
    <g transform="translate(20.0, 20.0) scale(2.75)">
        <ns0:defs xmlns:ns0="http://www.w3.org/2000/svg"><ns0:linearGradient id="a" x1="-133.268" y1="-202.91" x2="-133.198" y2="-202.84" gradientTransform="translate(25243.061 38519.17) scale(189.38 189.81)" gradientUnits="userSpaceOnUse"><ns0:stop offset="0" stop-color="#387eb8" /><ns0:stop offset="1" stop-color="#366994" /></ns0:linearGradient><ns0:linearGradient id="b" x1="-133.575" y1="-203.203" x2="-133.495" y2="-203.133" gradientTransform="translate(25309.061 38583.42) scale(189.38 189.81)" gradientUnits="userSpaceOnUse"><ns0:stop offset="0" stop-color="#ffe052" /><ns0:stop offset="1" stop-color="#ffc331" /></ns0:linearGradient></ns0:defs><ns0:title xmlns:ns0="http://www.w3.org/2000/svg">file_type_python</ns0:title><ns0:path xmlns:ns0="http://www.w3.org/2000/svg" d="M15.885,2.1c-7.1,0-6.651,3.07-6.651,3.07V8.36h6.752v1H6.545S2,8.8,2,16.005s4.013,6.912,4.013,6.912H8.33V19.556s-.13-4.013,3.9-4.013h6.762s3.772.06,3.772-3.652V5.8s.572-3.712-6.842-3.712h0ZM12.153,4.237a1.214,1.214,0,1,1-1.183,1.244v-.02a1.214,1.214,0,0,1,1.214-1.214h0Z" style="fill:url(#a)" /><ns0:path xmlns:ns0="http://www.w3.org/2000/svg" d="M16.085,29.91c7.1,0,6.651-3.08,6.651-3.08V23.65H15.985v-1h9.47S30,23.158,30,15.995s-4.013-6.912-4.013-6.912H23.64V12.4s.13,4.013-3.9,4.013H12.975S9.2,16.356,9.2,20.068V26.2s-.572,3.712,6.842,3.712h.04Zm3.732-2.147A1.214,1.214,0,1,1,21,26.519v.03a1.214,1.214,0,0,1-1.214,1.214h.03Z" style="fill:url(#b)" />
    </g>
</svg>